<?xml version="1.0" standalone="no"?>
<!DOCTYPE svg PUBLIC "-//W3C//DTD SVG 20010904//EN"
 "http://www.w3.org/TR/2001/REC-SVG-20010904/DTD/svg10.dtd">
<svg version="1.0" xmlns="http://www.w3.org/2000/svg"
 width="292.000000pt" height="292.000000pt" viewBox="0 0 292.000000 292.000000"
 preserveAspectRatio="xMidYMid meet">
<metadata>
Created by potrace 1.14, written by Peter Selinger 2001-2017
</metadata>
<g transform="translate(0.000000,292.000000) scale(0.100000,-0.100000)"
fill="#000000" stroke="none">
<path d="M1160 2910 c0 -5 -12 -10 -27 -10 -30 0 -144 -35 -185 -56 -14 -8
-31 -14 -37 -14 -17 0 -172 -75 -214 -104 -21 -14 -40 -26 -43 -26 -3 0 -44
-30 -92 -66 -134 -103 -245 -223 -346 -376 -43 -66 -125 -227 -126 -246 0 -8
-6 -26 -14 -40 -19 -38 -44 -119 -52 -169 -4 -24 -10 -43 -15 -43 -5 0 -9
-137 -9 -305 0 -197 4 -305 10 -305 6 0 10 -8 10 -17 0 -21 36 -143 56 -190 8
-17 14 -35 14 -39 0 -4 17 -42 37 -83 100 -206 245 -389 408 -515 79 -61 172
-126 180 -126 2 0 26 -13 52 -28 42 -24 137 -65 263 -112 19 -7 53 -15 75 -17
22 -3 44 -9 50 -14 13 -13 615 -12 615 1 0 6 17 10 38 10 20 1 48 7 62 15 14
8 34 14 45 15 11 0 33 7 49 15 15 8 33 15 38 15 18 0 155 67 213 104 30 20 58
36 61 36 14 0 167 125 231 190 62 61 193 220 193 234 0 2 19 35 43 74 24 38
56 100 71 138 16 38 35 83 42 101 8 17 14 39 14 50 1 10 7 29 15 43 8 14 14
39 15 57 0 17 5 35 10 38 13 8 14 607 1 620 -5 6 -11 28 -14 50 -2 22 -10 56
-17 75 -47 126 -88 221 -112 263 -15 26 -28 50 -28 52 0 9 -66 103 -126 180
-69 89 -175 195 -244 244 -70 50 -153 104 -179 118 -116 63 -256 123 -284 123
-8 0 -28 7 -43 15 -16 8 -44 15 -61 15 -18 0 -33 5 -33 10 0 6 -108 10 -305
10 -197 0 -305 -4 -305 -10z m-445 -585 c39 -9 82 -18 97 -20 15 -3 39 -10 53
-15 34 -13 101 -13 126 0 10 6 19 9 19 7 0 -2 -26 -60 -59 -128 l-58 -123 -17
57 c-18 63 -68 127 -120 155 -47 24 -160 21 -212 -6 -116 -60 -174 -195 -174
-409 0 -183 37 -294 125 -371 59 -52 125 -71 247 -75 l93 -2 0 205 0 205 -140
5 c-92 3 -147 10 -160 18 l-20 14 20 -9 c11 -4 84 -9 163 -11 l142 -3 0 25 0
26 -141 0 c-176 0 -199 9 -199 81 0 46 28 74 65 65 20 -5 25 -13 25 -37 0 -22
-5 -32 -20 -36 -11 -3 -20 -12 -20 -19 0 -12 47 -14 268 -14 l267 -1 -24 -20
c-22 -18 -23 -23 -14 -62 21 -85 108 -347 115 -347 4 0 11 15 17 33 5 17 34
104 65 191 l56 160 -27 28 -27 28 104 0 104 0 -27 -28 -27 -28 0 -465 c0 -255
4 -469 8 -475 11 -16 106 -17 145 -1 48 21 80 69 79 120 -1 23 -2 94 -3 157
-3 173 29 275 114 367 124 135 258 165 477 108 99 -25 153 -28 192 -11 11 5
-4 -34 -45 -120 l-62 -127 -15 51 c-38 126 -114 184 -233 178 -120 -6 -206
-81 -249 -219 -19 -60 -23 -95 -23 -212 0 -119 3 -150 23 -211 32 -96 83 -161
157 -199 53 -27 69 -30 172 -34 l113 -3 0 206 0 206 -139 0 c-124 0 -141 2
-162 20 l-24 20 37 -15 c26 -11 75 -15 163 -15 l125 0 0 25 0 25 -144 0 c-130
0 -146 2 -170 21 -48 38 -27 129 30 129 27 0 48 -32 39 -60 -4 -11 -15 -20
-27 -20 -11 0 -18 -5 -16 -12 4 -10 69 -14 262 -18 l257 -5 -46 -45 -45 -44 0
-190 0 -190 40 -41 39 -40 -277 5 c-211 4 -284 8 -307 19 -49 24 -153 105
-158 124 -5 15 -24 17 -229 18 -206 0 -221 1 -200 16 l22 15 0 387 c0 279 -3
382 -11 371 -9 -12 -9 -11 -4 5 12 32 19 121 9 112 -5 -5 -43 -108 -85 -230
-48 -140 -82 -223 -91 -225 -10 -2 -20 16 -31 55 -43 146 -95 296 -106 302 -6
4 -11 16 -10 27 4 34 -1 54 -11 54 -6 0 -10 -72 -10 -197 0 -173 2 -199 17
-216 18 -19 14 -19 -217 -15 -218 4 -239 6 -295 28 -122 47 -229 191 -254 341
-47 279 70 523 284 592 93 30 119 31 210 12z m333 -94 c-36 -83 -104 -220
-110 -221 -6 0 55 139 96 219 21 39 30 41 14 2z m-281 -27 c63 -36 60 -44 -4
-12 -67 34 -117 36 -179 7 -94 -45 -134 -136 -142 -320 -7 -194 17 -300 89
-385 l33 -39 -32 30 c-76 70 -107 193 -100 399 8 218 63 315 195 345 50 11 89
4 140 -25z m343 -317 c0 -2 -10 -12 -22 -23 l-23 -19 19 23 c18 21 26 27 26
19z m-113 -404 c-2 -38 -3 -7 -3 67 0 74 1 105 3 68 2 -38 2 -98 0 -135z m290
135 c-3 -8 -6 -5 -6 6 -1 11 2 17 5 13 3 -3 4 -12 1 -19z m1126 -116 c-31 -67
-61 -122 -65 -122 -5 0 15 46 43 101 28 56 55 113 60 127 5 13 12 23 14 20 3
-3 -21 -59 -52 -126z m-242 77 c19 -10 42 -26 49 -36 14 -17 14 -17 -5 -1 -31
25 -94 48 -135 48 -78 0 -155 -56 -191 -139 -39 -88 -49 -264 -25 -402 15 -81
31 -121 78 -184 l30 -40 -32 35 c-75 82 -105 202 -98 393 7 166 45 263 124
315 65 43 134 46 205 11z m-1101 -278 c0 -11 -502 -13 -529 -3 -11 4 99 6 245
5 166 -1 264 2 264 8 0 6 5 7 10 4 6 -3 10 -10 10 -14z m1412 -94 l-42 -43 0
-178 0 -178 61 -74 60 -74 -123 2 -123 2 108 3 c59 2 107 7 107 10 0 4 -22 32
-50 64 l-50 57 0 184 0 184 36 42 c19 23 41 42 47 42 6 0 -8 -19 -31 -43z
m-367 -537 l150 -7 -145 -1 c-105 0 -155 3 -180 14 -32 13 -32 14 -5 8 17 -4
98 -10 180 -14z"/>
</g>
</svg>
